<svg width="119" height="120" viewBox="0 0 119 120" fill="none" xmlns="http://www.w3.org/2000/svg">
<g clip-path="url(#clip0_185_44)">
<path d="M118.104 69.9086C117.594 72.7611 111.498 74.6029 102.562 74.6029H102.336C98.9952 71.8827 94.9376 69.1152 90.3705 66.5178C89.0589 65.7716 87.7472 65.0632 86.4356 64.4021C87.9077 64.2132 89.3797 63.9959 90.8612 63.7409C95.9096 62.8625 100.684 61.6346 104.865 60.1801C113.206 63.1364 118.641 66.8767 118.094 69.8992L118.104 69.9086ZM111.036 89.054C110.215 90.4519 108.045 90.7447 106.365 90.7447C103.279 90.7447 99.1651 89.8096 94.5885 88.1473C92.8145 85.172 90.6064 82.0174 88.0398 78.806C87.9548 78.7021 87.8605 78.5888 87.7756 78.4849C87.5585 78.2109 87.3415 77.9465 87.115 77.6726C86.7942 77.2853 86.4734 76.8981 86.1431 76.5203C85.1712 75.3774 84.1804 74.2723 83.1896 73.2144C84.6144 73.5261 86.0676 73.8189 87.568 74.074C92.5408 74.9335 97.4949 75.4057 101.958 75.4435C108.771 81.0351 112.583 86.3905 111.026 89.0446L111.036 89.054ZM79.8586 114.839C79.5944 114.934 79.3018 114.981 78.9999 114.981C76.018 114.981 71.8189 110.523 67.8463 103.694C68.5634 99.491 68.9598 94.655 68.9598 89.4696C68.9598 87.9867 68.922 86.5133 68.856 85.0682C69.743 86.211 70.6677 87.3539 71.6491 88.5062C74.0648 91.3398 76.5559 93.9466 79.0188 96.2229C79.9529 97.0824 80.8683 97.9042 81.7836 98.6692C83.35 107.274 82.7838 113.791 79.8586 114.839ZM59.5047 118.381C56.3813 118.381 53.5882 112.45 52.0784 103.826C54.2298 100.095 56.2964 95.6846 58.0704 90.8675C58.5894 89.4602 59.0612 88.0717 59.5047 86.7022C59.9388 88.0717 60.42 89.4602 60.939 90.8675C62.713 95.6751 64.7795 100.086 66.931 103.826C65.4212 112.45 62.6281 118.381 59.5047 118.381ZM40.0095 114.991C39.7075 114.991 39.415 114.943 39.1508 114.849C36.2161 113.8 35.65 107.283 37.2258 98.6787C40.5568 95.8829 44.0293 92.4165 47.3509 88.5157C48.3322 87.3728 49.257 86.2205 50.144 85.0776C50.0779 86.5133 50.0402 87.9773 50.0402 89.4791C50.0402 94.6645 50.4459 99.5004 51.1536 103.704C47.1904 110.532 42.9819 114.991 40.0095 114.991ZM23.2791 105.29C22.4298 105.29 21.7504 105.083 21.2503 104.667C19.5801 103.288 19.8821 99.5949 22.0807 94.5322C22.8639 92.7282 23.8547 90.8108 25.0248 88.8368C29.1484 87.3161 33.6306 85.2287 38.0939 82.688C39.4056 81.9418 40.6795 81.1767 41.9156 80.4022C41.3494 81.734 40.8116 83.0941 40.2926 84.5014C38.4903 89.3941 37.1881 94.0883 36.3954 98.2914C31.1678 102.655 26.393 105.29 23.2885 105.29H23.2791ZM12.635 90.7542C10.9554 90.7542 8.78507 90.4614 7.96412 89.0635C6.40715 86.3999 10.2194 81.054 17.0323 75.4624C21.4862 75.4246 26.4402 74.9524 31.4225 74.0928C32.9229 73.8284 34.3855 73.5356 35.8104 73.2333C34.8196 74.2912 33.8288 75.3963 32.8568 76.5391C29.5542 80.4211 26.6856 84.3975 24.4303 88.1662C19.8443 89.838 15.7301 90.7731 12.635 90.7731V90.7542ZM16.4378 74.6123C7.51119 74.6123 1.4154 72.7705 0.896407 69.9181C0.358543 66.8956 5.78436 63.1553 14.1165 60.199C18.193 61.6252 22.9488 62.8531 28.1293 63.7504C29.6108 64.0054 31.0923 64.2321 32.5549 64.421C31.2432 65.0821 29.941 65.7905 28.62 66.5367C24.0529 69.1341 20.0047 71.9016 16.6643 74.6218H16.4284L16.4378 74.6123ZM7.96412 30.3994C8.78507 29.0015 10.9554 28.7087 12.635 28.7087C15.7207 28.7087 19.8349 29.6438 24.4114 31.3061C26.6101 34.9803 29.4598 38.9473 32.8474 42.9331C33.8193 44.076 34.8101 45.1811 35.8009 46.239C34.3761 45.9273 32.9135 45.6345 31.4131 45.3795C28.8181 44.9261 26.2232 44.5861 23.7037 44.3499C21.4013 44.1421 19.1555 44.0288 17.0229 44.0099C10.2099 38.4183 6.39772 33.0724 7.95469 30.4088L7.96412 30.3994ZM21.2503 14.7959C21.7504 14.3803 22.4298 14.1725 23.2791 14.1725C26.3836 14.1725 31.1678 16.8172 36.3954 21.1714C37.1881 25.3745 38.4808 30.0688 40.2926 34.952C40.8116 36.3593 41.3589 37.7288 41.9156 39.0606C40.6889 38.2861 39.415 37.5211 38.0939 36.7749C33.64 34.2341 29.1673 32.1562 25.0437 30.6355C20.5803 23.0794 18.8535 16.77 21.2409 14.7959H21.2503ZM39.1508 4.614C39.415 4.51955 39.7075 4.47232 40.0095 4.47232C42.9819 4.47232 47.1904 8.93045 51.1536 15.7499C50.4365 19.953 50.0402 24.7889 50.0402 29.9838C50.0402 30.4844 50.0402 30.985 50.0496 31.4856C50.0496 31.835 50.059 32.1845 50.0779 32.534C50.0779 32.6662 50.0779 32.8079 50.0874 32.9401C50.0968 33.4313 50.1251 33.913 50.144 34.3852C49.257 33.2424 48.3322 32.0995 47.3509 30.9472C44.0293 27.0463 40.5568 23.5799 37.2258 20.7842C35.65 12.1796 36.2161 5.67186 39.1508 4.614ZM78.9999 4.47232C79.3018 4.47232 79.5849 4.51955 79.8586 4.614C81.8968 5.34128 82.897 8.92101 82.5951 14.4181C82.4913 16.3827 82.2176 18.5173 81.8119 20.7653C78.4809 23.5705 74.9895 27.0369 71.6585 30.9472C70.6866 32.0901 69.7618 33.2329 68.8654 34.3852C68.9315 32.9496 68.9692 31.4856 68.9692 29.9838C68.9692 29.4643 68.9692 28.9543 68.9598 28.4348C68.9598 28.3781 68.9598 28.3214 68.9598 28.2648C68.9598 27.8397 68.9409 27.4147 68.9315 26.9897C68.922 26.6213 68.9031 26.2718 68.8937 25.9129C68.8937 25.7996 68.8937 25.6862 68.8843 25.5823C68.7239 22.0498 68.3747 18.744 67.8652 15.7499C71.8378 8.92101 76.0369 4.47232 79.0188 4.47232H78.9999ZM95.7303 14.1725C96.5701 14.1725 97.2589 14.3898 97.7591 14.7959C100.146 16.77 98.429 23.0794 93.9657 30.6355C89.8421 32.1562 85.3788 34.2341 80.9249 36.7749C79.6038 37.5211 78.3299 38.2861 77.1032 39.0606C77.6694 37.7288 78.2072 36.3593 78.7262 34.952C80.4814 30.1916 81.8024 25.4784 82.6045 21.1809C87.8322 16.8077 92.6258 14.1631 95.7303 14.1631V14.1725ZM106.374 28.7087C108.054 28.7087 110.224 29.0015 111.045 30.3994C112.13 32.2601 110.564 35.6226 106.752 39.6462C105.393 41.0819 103.798 42.5459 102.015 44.0005C97.5515 44.0382 92.5786 44.5105 87.5963 45.37C86.0959 45.625 84.6333 45.9178 83.2179 46.2295C84.2087 45.1717 85.19 44.0666 86.1714 42.9237C89.559 38.9473 92.4087 34.9803 94.6074 31.2967C99.1839 29.6343 103.298 28.6992 106.384 28.6992L106.374 28.7087ZM75.4613 59.7267C78.4903 58.7161 81.7458 57.3654 85.0768 55.7314C86.9357 55.9486 88.8324 56.2131 90.7291 56.5437C95.3717 57.3465 99.7407 58.461 103.572 59.7361C99.6935 61.0301 95.3245 62.1163 90.7291 62.9097C88.8324 63.2403 86.9452 63.5048 85.0768 63.722C81.7364 62.088 78.4809 60.7373 75.4519 59.7267H75.4613ZM75.8954 64.2793C75.0178 64.2793 74.1686 64.2604 73.3476 64.2226C71.8944 63.127 70.479 62.1824 69.1485 61.3985C70.6866 61.1151 72.3379 60.6996 74.0931 60.1612C77.0088 61.0774 80.1888 62.3336 83.4632 63.8826C80.8305 64.1376 78.2827 64.2698 75.8954 64.2698V64.2793ZM74.4988 65.1105C74.9612 65.1199 75.4141 65.1294 75.8954 65.1294C78.7262 65.1294 81.7836 64.9499 84.9258 64.6004C86.5866 65.4222 88.2757 66.31 89.9459 67.2734C94.0318 69.5969 97.7496 72.1094 100.901 74.6029C96.7777 74.5084 92.2672 74.0456 87.7378 73.2617C85.8223 72.9311 83.9539 72.5438 82.1421 72.1188C79.5661 69.4553 76.9711 67.094 74.4894 65.1294L74.4988 65.1105ZM93.258 87.6561C89.4741 86.1921 85.4071 84.2559 81.3495 81.9512C79.6604 80.9973 78.0374 79.9961 76.4899 78.9855C74.9895 75.6041 73.3759 72.5249 71.7246 69.852C74.6687 70.9759 78.0374 72.0055 81.7175 72.8744C82.9914 74.2062 84.2559 75.6041 85.5014 77.0681C88.5305 80.6289 91.1537 84.2464 93.258 87.6467V87.6561ZM72.3191 87.9678C71.0735 86.5038 69.8939 85.0209 68.7805 83.5475C68.554 79.9205 68.1105 76.473 67.4877 73.375C69.8562 75.4246 72.6588 77.5214 75.7916 79.5616C76.537 81.2429 77.2353 82.9902 77.9053 84.7848C79.5189 89.1579 80.7361 93.446 81.5288 97.3563C81.274 97.1391 81.0287 96.9124 80.7645 96.6857C77.9713 94.1828 75.0933 91.2359 72.3096 87.9678H72.3191ZM57.4382 73.9512C58.278 72.3455 58.9763 70.8248 59.5141 69.3986C60.052 70.8248 60.7503 72.3455 61.5901 73.9512C61.1843 76.9264 60.4955 80.2228 59.5141 83.6892C58.5422 80.2228 57.8439 76.917 57.4382 73.9512ZM52.6351 72.3833C53.5221 71.5804 54.3431 70.7681 55.098 69.9747C55.4754 69.578 55.8246 69.1908 56.1548 68.813C56.1643 70.3337 56.2964 72.0055 56.5228 73.7906C55.1074 76.4447 53.3145 79.316 51.1914 82.244C51.4745 78.6549 51.9746 75.3113 52.6257 72.3833H52.6351ZM51.5217 73.3656C50.9083 76.4164 50.4648 79.845 50.2383 83.5569C49.1343 85.0209 47.9548 86.5038 46.6998 87.9678C43.6707 91.5287 40.519 94.7211 37.49 97.3563C38.2827 93.446 39.4905 89.1579 41.1041 84.7848C41.7741 82.9808 42.4723 81.2334 43.2178 79.5616C46.294 77.5498 49.106 75.4529 51.5122 73.375L51.5217 73.3656ZM48.653 69.3136C50.3421 68.6241 51.8708 67.8873 53.2107 67.1412C52.6917 68.5768 52.2294 70.2014 51.8236 71.9677C49.54 74.0173 46.8507 76.0952 43.8878 78.0976C45.3976 74.8296 47.0206 71.8543 48.653 69.3136ZM47.3037 69.8425C45.6523 72.5155 44.0293 75.6041 42.5384 78.9855C40.9814 79.9961 39.3584 80.9878 37.6787 81.9418C33.6117 84.2559 29.5353 86.1921 25.7419 87.6561C27.884 84.1992 30.5261 80.5911 33.5268 77.0681C34.7818 75.6041 36.0463 74.2062 37.3107 72.8744C40.9908 72.0055 44.3596 70.9759 47.3037 69.8425ZM45.9449 65.0632C46.1619 65.0538 46.3695 65.0443 46.5865 65.0349C47.2754 64.9971 47.9453 64.9404 48.587 64.8838C49.4551 64.7988 50.2855 64.6949 51.0687 64.5626C50.0873 65.7338 49.0965 67.0845 48.1152 68.5957C45.2843 69.7386 42.01 70.8059 38.4525 71.7221C41.0003 69.153 43.5481 66.9051 45.9543 65.0727L45.9449 65.0632ZM43.1329 65.1294C43.6047 65.1294 44.067 65.1294 44.5294 65.1105C42.0477 67.0751 39.4622 69.4364 36.8861 72.0999C35.0743 72.5249 33.206 72.9122 31.2904 73.2428C26.761 74.0267 22.2411 74.4895 18.1175 74.5934C21.2786 72.0999 24.987 69.5875 29.0729 67.264C30.7526 66.31 32.4322 65.4127 34.093 64.591C37.2352 64.9405 40.2926 65.1199 43.1234 65.1199L43.1329 65.1294ZM15.4848 59.7361C19.3064 58.461 23.666 57.356 28.2991 56.5531C30.1958 56.2225 32.0831 55.9486 33.942 55.7408C37.2824 57.3748 40.5379 58.7161 43.5669 59.7361C40.5379 60.7468 37.2824 62.0974 33.942 63.7315C32.0831 63.5142 30.1958 63.2498 28.2991 62.9192C23.666 62.1163 19.3064 61.0112 15.4848 59.7361ZM16.4567 44.8505C16.5322 44.8505 16.6171 44.8505 16.6926 44.8505C20.033 47.5707 24.0906 50.3287 28.6483 52.9262C29.9599 53.6723 31.2716 54.3713 32.5832 55.0419C31.1206 55.2308 29.6391 55.448 28.1576 55.7031C22.9771 56.6003 18.2213 57.8377 14.1448 59.2544C5.78436 56.2981 0.349107 52.5672 0.896407 49.5353C1.02851 48.7892 1.5475 48.1186 2.38733 47.5235C4.77469 45.8423 9.83249 44.8316 16.4378 44.8316L16.4567 44.8505ZM31.2904 46.2201C33.206 46.5507 35.0743 46.9379 36.8861 47.3629C39.4622 50.0359 42.0477 52.3878 44.5294 54.3524C44.0765 54.3429 43.6141 54.3335 43.1329 54.3335C40.2926 54.3335 37.2447 54.513 34.1024 54.8624C32.4416 54.0407 30.762 53.1528 29.0824 52.1894C24.9965 49.8659 21.2786 47.3535 18.1269 44.86C19.9104 44.8977 21.7599 45.0111 23.6565 45.1906C26.1477 45.4172 28.7238 45.7667 31.2904 46.2106V46.2201ZM47.3037 49.6203C44.3596 48.4869 40.9908 47.4574 37.3107 46.5884C36.0368 45.2661 34.7724 43.8588 33.5268 42.3948C30.4978 38.8339 27.8745 35.2164 25.7702 31.8162C29.5542 33.2802 33.6212 35.2164 37.6787 37.5211C39.3678 38.4845 40.9908 39.4762 42.5384 40.4774C44.0387 43.8588 45.6523 46.9474 47.3037 49.6203ZM51.833 47.533C52.2388 49.2898 52.7012 50.8954 53.2107 52.3311C51.8614 51.5849 50.3421 50.8577 48.653 50.1587C47.0206 47.6274 45.407 44.6522 43.8972 41.3841C46.9073 43.4243 49.5872 45.5117 51.833 47.533ZM51.5217 46.0878C49.1532 44.0477 46.36 41.9508 43.2178 39.9107C42.4818 38.2294 41.7741 36.4821 41.1041 34.6875C39.4905 30.3144 38.2732 26.0263 37.49 22.1159C40.519 24.7512 43.6707 27.9436 46.6998 31.5045C47.9453 32.9685 49.1249 34.4514 50.2383 35.9154C50.4648 39.6179 50.9083 43.0465 51.5217 46.0878ZM51.8708 16.9966C53.8052 20.5008 55.6736 24.5434 57.2777 28.8881C57.9477 30.6922 58.5328 32.4773 59.0612 34.2247C57.9949 37.7761 57.2211 41.148 56.7399 44.2177C55.2206 41.4975 53.324 38.5884 51.0876 35.6131C50.9744 33.7902 50.9177 31.9106 50.9177 29.9932C50.9177 25.3556 51.2669 20.9258 51.8708 16.9966ZM67.516 46.0878C68.1294 43.0465 68.5729 39.6084 68.7994 35.9059C69.9034 34.4325 71.0923 32.959 72.3285 31.5045C75.3669 27.9342 78.5281 24.7417 81.5665 22.0971C80.7645 26.064 79.5283 30.3522 77.9242 34.6875C77.2636 36.4821 76.5559 38.2294 75.8104 39.9107C72.6776 41.9508 69.8845 44.0477 67.516 46.0878ZM70.3846 50.1587C68.6955 50.8577 67.1669 51.5849 65.8175 52.3311C65.9024 52.0855 65.9968 51.84 66.0723 51.5849C66.4875 50.3476 66.8649 48.9875 67.1952 47.533C69.441 45.5117 72.1303 43.4243 75.131 41.3841C73.6213 44.6427 71.9982 47.618 70.3752 50.1493L70.3846 50.1587ZM71.7246 49.6298C73.3759 46.9568 74.9895 43.8777 76.4899 40.4963C78.0374 39.4857 79.6604 38.4939 81.3495 37.5305C85.4071 35.2259 89.4741 33.2896 93.258 31.8256C91.1537 35.2259 88.5305 38.8434 85.5014 42.4042C84.2559 43.8682 82.982 45.2756 81.7175 46.5979C78.0374 47.4668 74.6687 48.4964 71.7246 49.6298ZM73.0928 54.4091C71.215 54.4941 69.4976 54.6641 67.969 54.9097C68.9503 53.7385 69.9411 52.3878 70.9225 50.8766C73.7534 49.7242 77.0277 48.6569 80.5852 47.7502C78.0374 50.3193 75.4896 52.5672 73.0834 54.3996L73.0928 54.4091ZM75.8954 54.3429C75.4236 54.3429 74.9612 54.3429 74.4988 54.3618C76.9805 52.3972 79.5661 50.0454 82.1516 47.3724C83.9539 46.9474 85.8223 46.5601 87.7472 46.2295C92.2861 45.4361 96.806 44.9828 100.949 44.8789C97.7402 47.4007 94.0035 49.9037 89.9553 52.2083C88.2757 53.1623 86.596 54.0596 84.9353 54.8813C81.793 54.5318 78.7451 54.3524 75.9048 54.3524L75.8954 54.3429ZM69.1485 58.0644C70.479 57.2898 71.8944 56.3359 73.3476 55.2402C74.1686 55.2119 75.0178 55.193 75.8859 55.193C78.2733 55.193 80.8305 55.3252 83.4632 55.5803C80.1794 57.1293 77.0088 58.3855 74.0931 59.3111C72.3474 58.7727 70.6866 58.3571 69.1485 58.0738V58.0644ZM65.7515 59.7456C66.4592 59.4717 67.1952 59.1317 67.9595 58.7255C69.3938 58.9333 70.9508 59.2828 72.6116 59.7456C70.9508 60.2084 69.3938 60.5484 67.9595 60.7657C67.1952 60.3595 66.4497 60.0195 65.7515 59.7456ZM67.969 64.5721C69.4976 64.8271 71.215 64.9971 73.0928 65.0727C75.4991 66.9051 78.0374 69.153 80.5946 71.7221C77.0372 70.8154 73.7628 69.7481 70.9319 68.5957C69.9506 67.0845 68.9598 65.7338 67.9784 64.5626L67.969 64.5721ZM65.3268 65.885C64.9966 65.0821 64.6474 64.3643 64.2983 63.7031C65.0154 63.9393 65.7986 64.1471 66.6573 64.3265C67.5915 65.3749 68.5446 66.6028 69.4976 67.9912C67.9407 67.3017 66.5441 66.5934 65.3363 65.8755L65.3268 65.885ZM66.3082 68.6335C66.1478 68.114 65.9779 67.6229 65.8175 67.1506C67.1574 67.8968 68.6955 68.6335 70.3846 69.3325C72.0171 71.8732 73.6307 74.839 75.1405 78.107C72.1303 76.0669 69.441 73.9795 67.1952 71.9582C66.931 70.787 66.629 69.6914 66.3176 68.643L66.3082 68.6335ZM62.8451 67.4718C62.8074 66.6028 62.7319 65.8 62.6186 65.0632C63.2131 65.5261 63.8831 65.9983 64.6285 66.4611C64.9305 67.2073 65.2136 68.0101 65.4778 68.8791C65.676 69.5214 65.8647 70.192 66.044 70.8815C64.8078 69.7103 63.7321 68.558 62.8451 67.4718ZM62.496 73.8095C62.7224 72.0243 62.8451 70.3525 62.864 68.8319C63.8736 69.9936 65.0626 71.2026 66.412 72.4305C67.082 75.4057 67.5538 78.7399 67.8369 82.2818C65.7137 79.3444 63.9114 76.473 62.5054 73.8095H62.496ZM57.4098 64.1848C57.6835 63.9204 57.9288 63.6653 58.1553 63.4103C58.1553 63.7409 58.1742 64.0904 58.2119 64.4587C57.9194 65.0255 57.542 65.6205 57.1079 66.2439C57.1739 65.4977 57.2683 64.8082 57.4098 64.1943V64.1848ZM55.985 63.2214C56.3247 63.0703 56.6549 62.9097 56.9475 62.7492C56.8342 63.0609 56.7304 63.4009 56.6455 63.7598C56.1643 64.1848 55.617 64.6193 54.9847 65.0538C55.3056 64.3737 55.6358 63.7692 55.985 63.2309V63.2214ZM54.7205 63.7031C54.3525 64.3548 54.0128 65.0916 53.6825 65.885C52.4747 66.6028 51.0687 67.3112 49.5117 68.0007C50.4648 66.6123 51.4179 65.3844 52.352 64.336C53.2107 64.1565 54.0034 63.9487 54.7205 63.7031ZM51.0498 58.7255C51.8142 59.1317 52.5596 59.4717 53.2579 59.7456C52.5502 60.0195 51.8142 60.3595 51.0498 60.7657C49.6155 60.5579 48.0586 60.2179 46.3978 59.7456C48.0586 59.2828 49.6155 58.9333 51.0498 58.7255ZM49.8609 58.0644C48.3228 58.3477 46.6714 58.7633 44.9257 59.3017C42.01 58.3855 38.83 57.1198 35.5462 55.5708C38.1789 55.3158 40.7266 55.1836 43.1234 55.1836C44.001 55.1836 44.8503 55.2025 45.6618 55.2308C47.1149 56.3264 48.5304 57.271 49.8609 58.0549V58.0644ZM51.9557 55.9581C52.5313 56.5909 53.1069 57.1482 53.6637 57.6393C52.8805 57.6582 52.0501 57.7338 51.1631 57.8566C49.9081 57.1765 48.5681 56.3359 47.1716 55.3347C48.9361 55.4575 50.5403 55.6653 51.9557 55.9581ZM48.0869 50.886C49.0682 52.3972 50.0685 53.7479 51.0404 54.9191C49.5117 54.6641 47.7943 54.5035 45.926 54.4185C43.5197 52.5861 40.972 50.3382 38.4242 47.7691C41.9816 48.6758 45.256 49.7431 48.0869 50.8954V50.886ZM56.1454 50.6593C55.1452 49.507 53.9656 48.3075 52.6163 47.0796C51.9652 44.1516 51.4745 40.8174 51.182 37.2283C53.2957 40.1563 55.098 43.0276 56.5134 45.6817C56.2775 47.4763 56.1548 49.1386 56.1454 50.6593ZM59.0517 51.3677C58.7781 52.1989 58.5705 52.9734 58.4195 53.7007C58.0232 53.0584 57.5608 52.4067 57.023 51.7266C56.9947 50.3382 57.0701 48.7892 57.2494 47.1174C57.9949 48.6286 58.6082 50.0643 59.0612 51.3772L59.0517 51.3677ZM61.5807 45.54C61.0239 46.5979 60.5332 47.6369 60.0992 48.638C59.8821 49.1386 59.6934 49.6203 59.5141 50.0832C58.9763 48.6569 58.278 47.1363 57.4382 45.5211C57.8439 42.5459 58.5328 39.2495 59.5141 35.7831C60.4955 39.2495 61.1843 42.5553 61.5901 45.5306L61.5807 45.54ZM62.2884 44.246C61.8071 41.1763 61.0333 37.795 59.9576 34.2341C60.486 32.4868 61.0805 30.6922 61.7411 28.8976C63.3452 24.5528 65.2042 20.5103 67.148 17.0061C67.7614 20.9353 68.1011 25.3651 68.1011 30.0027C68.1011 31.9201 68.0445 33.7996 67.9218 35.6226C65.7326 38.5506 63.817 41.4691 62.2695 44.2366L62.2884 44.246ZM66.3931 47.089C65.0532 48.3075 63.8642 49.507 62.8734 50.6688C62.8545 49.1481 62.7319 47.4668 62.496 45.6723C63.9303 42.9709 65.7326 40.1185 67.8274 37.2283C67.5443 40.8269 67.0442 44.1705 66.3931 47.0985V47.089ZM64.6285 53.049C63.8831 53.5023 63.2131 53.9746 62.6186 54.4374C62.7319 53.6912 62.8074 52.8884 62.8451 52.0289C63.7227 50.9427 64.7984 49.8092 66.0157 48.638C65.9685 48.8269 65.9213 49.0159 65.8741 49.1953C65.4967 50.6026 65.0815 51.8966 64.6285 53.0395V53.049ZM64.2888 55.7975C64.6568 55.1458 64.9966 54.4185 65.3268 53.6157C66.5347 52.8978 67.9312 52.18 69.4882 51.4999C68.5351 52.8884 67.5821 54.1257 66.6573 55.1647C65.7986 55.3441 65.006 55.5519 64.2888 55.7975ZM64.0341 57.6677C63.6566 57.696 63.2886 57.7338 62.9583 57.7904C63.1659 57.5449 63.3735 57.271 63.5717 56.9876C64.1662 56.742 64.8456 56.5248 65.5816 56.317C65.0532 56.8365 64.5342 57.2898 64.0341 57.6677ZM65.3457 57.6582C65.9119 57.1671 66.478 56.6003 67.0536 55.977C68.4691 55.6842 70.0732 55.4764 71.8378 55.3536C70.4412 56.3453 69.1013 57.1954 67.8463 57.8754C66.9593 57.7527 66.1195 57.6771 65.3457 57.6582ZM64.2983 59.2733C63.9963 59.1883 63.7038 59.1222 63.4207 59.075C63.7132 58.9144 63.9963 58.7255 64.2888 58.5083C64.5059 58.4988 64.7229 58.4988 64.9305 58.4988C65.4117 58.4988 65.9307 58.5272 66.4592 58.5744C65.7703 58.8861 65.1098 59.1411 64.487 59.33C64.4304 59.3111 64.3643 59.2922 64.3077 59.2733H64.2983ZM65.3457 61.8708C66.1289 61.8519 66.9593 61.7763 67.8463 61.6535C69.1013 62.3241 70.4412 63.1742 71.8378 64.1754C70.0732 64.0526 68.4691 63.8354 67.0536 63.552C66.478 62.9192 65.9024 62.3525 65.3457 61.8708ZM62.9678 61.7385C63.3075 61.7952 63.6566 61.8235 64.0341 61.8519C64.5342 62.2297 65.0532 62.683 65.5816 63.2025C64.8456 63.0042 64.1756 62.7869 63.5811 62.5414C63.383 62.2486 63.1754 61.9841 62.9678 61.7385ZM62.0619 62.7681C62.3544 62.9286 62.6752 63.0892 63.015 63.2403C63.3641 63.7692 63.6944 64.3832 64.0246 65.0632C63.4018 64.6382 62.8451 64.2037 62.3733 63.7787C62.2884 63.4198 62.1846 63.0892 62.0713 62.7681H62.0619ZM60.8069 64.4965C60.8446 64.1282 60.8635 63.7692 60.8729 63.4292C61.0994 63.6842 61.3353 63.9487 61.6184 64.2037C61.7599 64.8271 61.8543 65.5166 61.9204 66.2628C61.4769 65.6488 61.1088 65.0538 60.8163 64.4871L60.8069 64.4965ZM54.9942 61.8519C55.3716 61.8235 55.7396 61.7858 56.0699 61.7291C55.8623 61.9747 55.6641 62.2486 55.466 62.5319C54.8715 62.7775 54.1921 63.0042 53.4561 63.2025C53.9845 62.683 54.5035 62.2297 55.0036 61.8519H54.9942ZM53.6825 61.8708C53.1164 62.3525 52.5502 62.9192 51.9746 63.552C50.5592 63.8354 48.955 64.0432 47.1904 64.1754C48.587 63.1742 49.9269 62.3241 51.182 61.6535C52.069 61.7763 52.9088 61.8519 53.6825 61.8708ZM55.6075 60.454C55.3244 60.624 55.0319 60.8035 54.7394 61.0207C54.5224 61.0301 54.3053 61.0396 54.0977 61.0396C53.6165 61.0396 53.0975 61.0112 52.5691 60.964C53.2579 60.6523 53.9279 60.3973 54.5412 60.199C54.9093 60.3123 55.2584 60.3879 55.6075 60.454ZM54.7394 58.5083C55.0319 58.7255 55.3244 58.9144 55.6075 59.075C55.2678 59.1411 54.9093 59.2261 54.5412 59.33C53.9184 59.1411 53.2579 58.8861 52.5691 58.5744C53.0975 58.5272 53.6165 58.4988 54.0977 58.4988C54.3053 58.4988 54.5224 58.4988 54.7394 58.5083ZM55.4566 56.9876C55.6547 57.2804 55.8623 57.5449 56.0699 57.7904C55.7302 57.7338 55.3811 57.696 55.0036 57.6677C54.5035 57.2898 53.9845 56.8365 53.4561 56.317C54.1921 56.5153 54.8621 56.7326 55.4566 56.9876ZM53.7014 53.6251C53.7014 53.6251 53.7109 53.6629 53.7203 53.6818C53.7486 53.7384 53.7675 53.7951 53.7958 53.8518C53.8618 54.0029 53.9184 54.1351 53.9845 54.2768C54.2298 54.8246 54.4846 55.3347 54.7394 55.7975C54.0222 55.5614 53.2296 55.3536 52.3709 55.1647C51.4462 54.1163 50.4931 52.8884 49.54 51.4999C51.097 52.1894 52.503 52.8978 53.7109 53.6157L53.7014 53.6251ZM58.1553 56.0903C57.9383 55.8353 57.6929 55.5708 57.4193 55.3158C57.2777 54.6924 57.1739 54.0029 57.1079 53.2567C57.5514 53.8707 57.91 54.4563 58.2119 55.023C58.1742 55.4008 58.1553 55.7503 58.1459 56.0903H58.1553ZM59.9387 54.8813C59.7689 55.2119 59.6274 55.5425 59.5141 55.8636C59.4009 55.5519 59.2593 55.2308 59.0989 54.9002C59.1839 54.2674 59.3254 53.5873 59.5236 52.8506C59.7217 53.5779 59.8633 54.2579 59.9482 54.8908L59.9387 54.8813ZM61.609 55.3158C61.3353 55.5803 61.09 55.8353 60.8635 56.0997C60.8635 55.7597 60.8446 55.4102 60.7974 55.0324C61.0994 54.4657 61.4674 53.8707 61.9015 53.2567C61.8354 54.0029 61.7316 54.6924 61.5995 55.3158H61.609ZM63.0338 56.2792C62.6847 56.4303 62.3639 56.5909 62.0619 56.7609C62.1751 56.4492 62.2789 56.1092 62.3639 55.7503C62.8451 55.3252 63.3924 54.8908 64.0246 54.4657C63.7038 55.1458 63.3735 55.7503 63.0338 56.2887V56.2792ZM56.6644 55.7503C56.7493 56.1092 56.8531 56.4398 56.9663 56.7609C56.6738 56.5909 56.353 56.4398 56.0133 56.2887C55.6641 55.7597 55.3339 55.1458 55.0036 54.4657C55.6264 54.8908 56.1831 55.3252 56.655 55.7503H56.6644ZM64.2983 61.0112C64.0058 60.794 63.7132 60.6145 63.4301 60.4445C63.7698 60.3784 64.1284 60.3029 64.4964 60.1895C65.1192 60.3784 65.7798 60.6334 66.4686 60.9546C65.9402 61.0018 65.4212 61.0301 64.9399 61.0301C64.7323 61.0301 64.5247 61.0301 64.2983 61.0112ZM62.0053 51.7266C61.4674 52.4067 60.9956 53.0773 60.5993 53.7101C60.4483 52.9734 60.2407 52.1894 59.9671 51.3677C60.2313 50.6121 60.5332 49.8187 60.9012 48.9781C61.1655 48.3641 61.4674 47.7313 61.7788 47.089C61.9581 48.7703 62.0336 50.3382 62.0053 51.7361V51.7266ZM56.1831 52.0289C56.2114 52.8884 56.2869 53.6912 56.4002 54.4374C55.8057 53.9746 55.1357 53.5023 54.3997 53.049C53.8901 51.755 53.4183 50.2721 53.0031 48.638C54.2204 49.8092 55.2961 50.9427 56.1831 52.0289ZM59.4575 66.4611C59.2876 65.8188 59.165 65.2144 59.0895 64.6476C59.2593 64.3171 59.4009 63.9865 59.5141 63.6653C59.6368 63.9865 59.7689 64.3076 59.9387 64.6382C59.8538 65.271 59.7123 65.9511 59.5141 66.6784C59.4952 66.6028 59.4764 66.5367 59.4575 66.4611ZM61.7788 72.3927C61.0334 70.8815 60.4294 69.4553 59.9671 68.1329C60.2407 67.3112 60.4483 66.5272 60.5993 65.7905C60.9956 66.4328 61.4674 67.094 62.0053 67.7835C62.0336 69.1719 61.9581 70.7209 61.7788 72.3927ZM35.5556 63.9204C38.8394 62.3714 42.01 61.1151 44.9352 60.199C46.6809 60.7373 48.3417 61.1529 49.8703 61.4363C48.5398 62.2202 47.1244 63.1648 45.6712 64.251C44.8503 64.2887 44.0104 64.3076 43.1329 64.3076C40.7455 64.3076 38.1883 64.1754 35.5556 63.9204ZM54.4752 69.4269C54.0128 69.9181 53.5127 70.4092 52.9937 70.9098C53.4089 69.2663 53.8807 67.774 54.3903 66.4706C55.1357 66.0078 55.7963 65.5449 56.3907 65.0727C56.2775 65.8189 56.202 66.6217 56.1643 67.4907C55.6641 68.114 55.098 68.7657 54.4658 69.4269H54.4752ZM57.0324 67.7929C57.5703 67.1128 58.0421 66.4422 58.4384 65.8094C58.5894 66.5461 58.797 67.3206 59.0706 68.1424C58.6177 69.4553 58.0043 70.8909 57.2589 72.4022C57.0796 70.7304 57.0041 69.1813 57.0324 67.7929ZM64.1096 5.72853C64.1473 5.81354 64.185 5.89855 64.2322 5.993C64.2794 6.0969 64.3266 6.20079 64.3738 6.30469C65.4212 8.76044 66.2987 11.9624 66.9498 15.6554C64.8078 19.3863 62.7413 23.7972 60.9579 28.6048C60.4389 30.0121 59.9576 31.41 59.5236 32.7796C59.0895 31.41 58.6082 30.0216 58.0893 28.6048C56.3152 23.7972 54.2487 19.3863 52.0973 15.6554C53.6071 7.04141 56.4002 1.10039 59.5236 1.10039C59.6651 1.10039 59.7972 1.10983 59.9387 1.13817C61.4014 1.39319 62.8545 3.00832 64.119 5.72853H64.1096ZM51.0876 83.8875C53.324 80.9123 55.2301 78.0032 56.7399 75.2829C57.2211 78.3432 57.9949 81.7151 59.0706 85.276C58.5422 87.0233 57.9477 88.8179 57.2872 90.6125C55.683 94.9573 53.8241 99.0093 51.8802 102.504C51.2763 98.5748 50.9272 94.145 50.9272 89.5074C50.9272 87.59 50.9838 85.7104 51.097 83.8875H51.0876ZM68.1199 89.5074C68.1199 94.145 67.7708 98.5748 67.1669 102.504C65.2325 99.0093 63.3641 94.9573 61.7599 90.6125C61.09 88.8085 60.5049 87.0233 59.9765 85.276C61.0428 81.7246 61.8166 78.3526 62.2978 75.2829C63.817 78.0032 65.7137 80.9123 67.9595 83.8969C68.0633 85.7293 68.1199 87.5995 68.1199 89.5074ZM98.1743 97.9136C98.212 98.0459 98.2497 98.1781 98.2875 98.3009C98.3347 98.4803 98.3913 98.6692 98.4385 98.8487C98.4385 98.8676 98.4385 98.8865 98.4479 98.8959C99.0613 101.446 98.948 103.354 98.061 104.393C97.9761 104.497 97.8723 104.591 97.7685 104.686C97.2684 105.101 96.589 105.309 95.7397 105.309C92.6352 105.309 87.851 102.665 82.6234 98.3103C81.8402 94.1072 80.538 89.4129 78.7262 84.5203C78.2072 83.113 77.6599 81.7529 77.1032 80.4211C78.3299 81.1862 79.6038 81.9607 80.9249 82.7069C85.3788 85.2382 89.8421 87.3256 93.9657 88.8462C95.8907 92.1143 97.3156 95.1462 98.1082 97.6964C98.1271 97.7625 98.1554 97.8381 98.1743 97.9136ZM102.581 44.8789C111.508 44.8789 117.603 46.7207 118.122 49.5826C118.5 51.6888 115.858 54.3335 110.875 56.8176C109.101 57.7054 107.101 58.5366 104.931 59.3111C100.845 57.8849 96.07 56.657 90.8801 55.7503C89.3986 55.4953 87.9171 55.2686 86.4545 55.0891C87.7661 54.4185 89.0683 53.7196 90.3894 52.9734C94.8338 50.4421 98.9103 47.6746 102.336 44.8977C102.421 44.8977 102.505 44.8977 102.59 44.8977L102.581 44.8789ZM106.176 59.755C108.016 59.075 109.724 58.3383 111.262 57.5732C116.688 54.8624 119.425 51.9722 118.962 49.4314C118.377 46.1445 112.555 44.1421 103.345 44.0382C104.836 42.7726 106.195 41.5069 107.375 40.2602C111.526 35.887 113.102 32.2506 111.791 30.0121C110.97 28.6048 109.149 27.8964 106.374 27.8964C103.421 27.8964 99.5519 28.7181 95.2585 30.201C99.5991 22.5882 100.977 16.3827 98.3158 14.182C97.6553 13.6436 96.7871 13.3602 95.7397 13.3602C92.6163 13.3602 87.9454 15.8349 82.8404 19.9624C83.1613 18.0356 83.3688 16.2127 83.4726 14.4937C83.8029 8.51486 82.6328 4.73679 80.17 3.84894C79.8114 3.71671 79.4245 3.65059 79.0188 3.65059C75.8576 3.65059 71.6396 7.8537 67.6387 14.4842C67.0253 11.3012 66.2327 8.51486 65.2985 6.2858C65.2891 6.24802 65.2702 6.21024 65.2608 6.1819C65.1853 6.01189 65.1098 5.85132 65.0437 5.68131C64.9777 5.54907 64.9211 5.41684 64.8644 5.28461C64.855 5.25627 64.8361 5.23738 64.8267 5.20905C63.2886 1.98824 61.4674 0.259766 59.533 0.259766C56.051 0.259766 53.0598 5.89855 51.4179 14.4937C47.4075 7.86315 43.1895 3.66004 40.0378 3.66004C39.632 3.66004 39.2451 3.72615 38.8866 3.85838C35.6122 5.02959 34.763 11.3295 36.1973 19.953C31.0923 15.8349 26.4213 13.3697 23.3074 13.3697C22.26 13.3697 21.3824 13.6436 20.7313 14.1914C18.0609 16.3922 19.448 22.5976 23.7886 30.2105C19.4857 28.7276 15.6358 27.9058 12.6728 27.9058C9.90798 27.9058 8.07736 28.6142 7.25641 30.0216C5.52015 32.9968 8.96436 38.3522 15.6829 44.0477C10.1345 44.1138 5.82211 44.86 3.14222 46.1729C1.37765 47.0324 0.320798 48.1375 0.0848931 49.4409C-0.519024 52.8128 4.57653 56.6853 12.8521 59.7739C4.53878 62.8058 -0.556769 66.6784 0.0471483 70.0597C0.641629 73.3467 6.4449 75.3396 15.6452 75.453C8.92662 81.1484 5.47297 86.5038 7.21867 89.4791C8.03961 90.8864 9.8608 91.5948 12.635 91.5948C15.598 91.5948 19.4669 90.7636 23.7698 89.2807C22.7978 90.9808 21.9675 92.6243 21.288 94.1922C18.9007 99.7082 18.6931 103.647 20.6936 105.309C21.3541 105.857 22.2222 106.131 23.2697 106.131C26.3836 106.131 31.0545 103.666 36.1595 99.5476C34.7252 108.171 35.5745 114.471 38.8488 115.642C39.2168 115.774 39.5943 115.841 40 115.841C43.1517 115.841 47.3697 111.637 51.3801 105.007C53.022 113.593 56.0133 119.231 59.4952 119.231C62.9772 119.231 65.9685 113.593 67.6104 105.007C71.6113 111.637 75.8388 115.841 78.9904 115.841C79.3962 115.841 79.7831 115.774 80.1417 115.642C83.416 114.471 84.2653 108.171 82.831 99.5476C87.9265 103.666 92.5975 106.131 95.7208 106.131C96.7777 106.131 97.6458 105.857 98.2969 105.309C99.8728 104.006 100.071 101.286 98.9291 97.498C98.9008 97.3847 98.8631 97.2808 98.8348 97.1674C98.8065 97.0824 98.7687 96.988 98.7404 96.8935C97.995 94.6267 96.8154 92.0482 95.2396 89.2807C99.5331 90.7636 103.392 91.5948 106.355 91.5948C109.12 91.5948 110.951 90.8864 111.772 89.4791C113.508 86.5038 110.064 81.1484 103.345 75.453C112.546 75.3396 118.358 73.3467 118.943 70.0597C119.547 66.6784 114.442 62.8058 106.157 59.7173L106.176 59.755Z" fill="white"/>
</g>
<defs>
<clipPath id="clip0_185_44">
<rect width="119" height="119" fill="white" transform="translate(0 0.222168)"/>
</clipPath>
</defs>
</svg>
